<?xml version="1.0" standalone="no"?>
<!DOCTYPE svg PUBLIC "-//W3C//DTD SVG 20010904//EN"
 "http://www.w3.org/TR/2001/REC-SVG-20010904/DTD/svg10.dtd">
<svg version="1.0" xmlns="http://www.w3.org/2000/svg"
 width="1500.000000pt" height="1500.000000pt" viewBox="0 0 1500.000000 1500.000000"
 preserveAspectRatio="xMidYMid meet">

<g transform="translate(0.000000,1500.000000) scale(0.100000,-0.100000)"
fill="#000000" stroke="none">
<path d="M9165 12730 c-202 -17 -329 -98 -401 -253 -33 -74 -40 -133 -54 -462
-7 -148 -16 -286 -21 -306 -11 -43 -45 -95 -79 -121 -14 -10 -119 -45 -233
-78 -115 -33 -220 -66 -235 -74 -23 -12 -47 -61 -154 -322 -70 -170 -134 -326
-142 -346 l-16 -36 113 53 c385 183 811 300 1257 347 172 17 566 15 740 -6
450 -52 832 -162 1226 -351 251 -120 499 -276 719 -451 143 -114 458 -429 569
-569 275 -347 489 -737 627 -1143 22 -63 39 -120 39 -128 0 -12 -124 -14 -863
-14 l-862 0 -33 55 c-60 101 -184 258 -281 358 -182 187 -361 317 -596 432
-310 152 -593 217 -940 218 -708 0 -1349 -340 -1757 -933 -320 -464 -436
-1043 -327 -1620 45 -233 172 -543 306 -745 207 -312 487 -564 811 -728 758
-384 1655 -288 2318 249 167 135 383 382 467 533 l28 51 -925 0 -926 0 0 535
0 535 1872 0 1871 0 -6 -162 c-43 -1090 -571 -2114 -1440 -2791 -934 -728
-2162 -967 -3307 -646 -822 231 -1550 747 -2046 1449 -191 270 -339 551 -454
864 -26 71 -50 125 -52 120 -3 -5 -85 -200 -183 -434 -97 -234 -192 -460 -211
-504 -32 -76 -33 -78 -11 -72 138 36 165 39 213 26 69 -20 101 -53 218 -228
57 -86 151 -216 209 -289 110 -139 127 -171 127 -237 -1 -59 -19 -94 -203
-374 -91 -139 -176 -278 -188 -310 -28 -73 -30 -203 -4 -277 41 -117 112 -190
385 -397 235 -177 439 -307 533 -339 127 -43 298 -9 399 80 20 17 127 144 237
280 121 150 215 258 238 272 23 15 57 24 92 27 49 3 76 -4 219 -58 90 -34 237
-82 325 -107 197 -55 212 -60 249 -91 66 -55 69 -74 89 -447 19 -380 24 -402
99 -508 46 -64 138 -130 213 -152 119 -35 764 -45 972 -15 166 24 292 130 352
294 10 29 20 144 33 382 19 360 21 375 74 432 32 36 65 50 204 88 159 43 284
84 432 141 133 52 197 55 264 14 22 -14 116 -121 236 -271 110 -136 217 -263
237 -280 102 -90 264 -123 399 -82 147 45 743 473 854 613 62 78 84 147 84
259 -1 73 -6 107 -22 147 -12 29 -102 176 -201 327 -185 285 -201 318 -186
388 11 51 33 87 100 168 79 95 203 266 287 396 120 185 137 187 549 75 162
-44 320 -83 350 -87 141 -16 308 63 388 182 89 136 321 851 321 992 0 140 -80
286 -198 360 -26 17 -180 80 -342 142 -162 61 -310 123 -328 136 -18 14 -42
44 -53 66 -20 40 -21 55 -21 432 0 238 4 401 10 417 15 37 60 87 94 105 17 9
159 65 316 125 186 71 306 122 341 146 101 70 168 189 178 319 4 49 -2 91 -32
210 -65 261 -197 645 -266 775 -67 126 -196 207 -342 216 -79 5 -93 2 -401
-81 -175 -47 -335 -86 -355 -86 -46 0 -108 29 -143 66 -14 16 -59 78 -98 139
-75 114 -189 268 -274 370 -86 104 -105 178 -67 260 10 22 92 153 182 290 196
301 213 336 212 460 0 152 -42 232 -188 359 -186 160 -579 437 -703 494 -45
20 -77 27 -148 30 -104 5 -168 -11 -246 -60 -60 -38 -88 -69 -305 -339 -104
-129 -197 -236 -217 -248 -54 -34 -129 -38 -201 -11 -180 67 -377 133 -496
165 -148 41 -174 52 -205 87 -54 59 -57 72 -75 433 -15 294 -20 348 -38 396
-56 149 -172 249 -326 279 -74 15 -707 22 -850 10z"/>
<path d="M97 11373 c-3 -8 654 -1597 2022 -4888 329 -792 742 -1788 917 -2212
l319 -773 676 0 677 0 15 38 c29 71 1307 3177 1341 3257 18 44 61 150 96 235
35 85 74 179 87 208 13 30 25 62 26 73 1 10 5 19 10 19 5 0 5 10 2 21 -5 16
-4 19 6 14 9 -6 11 -4 6 8 -3 9 0 18 9 21 8 3 14 10 14 16 0 11 -28 9 -49 -4
-10 -6 -12 -5 -7 2 4 7 1 12 -8 12 -9 0 -16 5 -16 10 0 7 6 7 18 1 11 -6 21
-5 29 4 6 7 11 15 10 17 -1 2 3 -2 9 -9 13 -15 28 -18 20 -4 -3 4 1 17 9 27
12 16 11 21 -2 37 -17 18 -10 22 27 17 8 -1 12 1 8 5 -4 4 -1 20 6 34 21 39
41 85 186 436 174 419 130 313 805 1930 323 776 590 1418 593 1428 4 16 -4 17
-113 15 l-118 -3 -36 -85 c-408 -976 -1426 -3467 -1420 -3474 5 -6 9 -15 9
-20 0 -6 -4 -5 -9 3 -6 9 -16 -2 -34 -40 -20 -42 -22 -55 -12 -65 18 -18 37
-20 62 -6 17 10 23 9 29 0 4 -7 4 -10 -1 -6 -9 9 -35 -9 -35 -24 0 -5 6 -6 13
-3 6 4 0 -3 -16 -15 -15 -12 -25 -26 -21 -31 6 -10 -9 -12 -19 -3 -3 4 4 15
16 25 25 20 17 34 -24 44 -20 5 -28 2 -33 -12 -3 -10 -9 -24 -12 -30 -3 -7 -1
-13 6 -13 6 0 8 6 5 13 -4 6 1 3 10 -8 15 -19 15 -20 -12 -25 -24 -5 -28 -10
-26 -35 2 -19 -1 -25 -6 -17 -6 10 -13 3 -24 -25 -11 -28 -12 -40 -3 -45 7 -5
6 -8 -4 -8 -18 0 -84 -156 -74 -172 5 -7 2 -8 -6 -3 -10 6 -12 4 -7 -8 3 -9 2
-17 -3 -19 -5 -2 -59 -124 -121 -273 -61 -148 -293 -704 -514 -1235 -222 -531
-441 -1057 -488 -1170 -47 -112 -89 -206 -94 -207 -9 -3 -384 897 -1244 2982
-567 1376 -906 2198 -1409 3413 l-254 612 -907 0 c-500 0 -910 -3 -912 -7z
m6413 -3377 c0 -3 -4 -8 -10 -11 -5 -3 -10 -1 -10 4 0 6 5 11 10 11 6 0 10 -2
10 -4z m-155 -45 c3 -5 2 -12 -3 -15 -5 -3 -9 1 -9 9 0 17 3 19 12 6z m109
-16 c-4 -8 -11 -12 -16 -9 -6 4 -5 10 3 15 19 12 19 11 13 -6z m-70 -80 c-4
-8 -11 -15 -16 -15 -6 0 -5 6 2 15 7 8 14 15 16 15 2 0 1 -7 -2 -15z m49 -26
c-8 -8 -13 -7 -18 2 -6 8 -4 10 5 4 10 -6 12 -4 6 11 -6 15 -5 17 5 7 9 -10
10 -16 2 -24z m-63 -13 c0 -2 -7 -6 -15 -10 -8 -3 -15 -1 -15 4 0 6 7 10 15
10 8 0 15 -2 15 -4z m-70 -26 c0 -5 -2 -10 -4 -10 -3 0 -8 5 -11 10 -3 6 -1
10 4 10 6 0 11 -4 11 -10z m110 2 c-17 -8 -19 -20 -7 -39 5 -8 1 -11 -13 -10
-11 1 -20 5 -20 9 0 4 -5 8 -10 8 -7 0 -7 -6 0 -19 10 -20 -4 -41 -17 -27 -4
3 -1 6 6 6 9 0 9 5 1 20 -9 16 -8 22 5 26 8 3 15 11 15 18 0 6 12 12 28 13 17
1 21 -1 12 -5z m-100 -52 c0 -5 -7 -7 -16 -3 -9 3 -19 0 -24 -6 -5 -10 -9 -9
-13 3 -5 12 0 16 23 16 17 0 30 -4 30 -10z m70 -45 c0 -8 -4 -15 -10 -15 -5 0
-7 7 -4 15 4 8 8 15 10 15 2 0 4 -7 4 -15z m-47 -44 c-3 -12 -11 -17 -19 -14
-11 4 -12 9 -3 19 16 20 28 17 22 -5z m49 -20 c-3 -9 -32 -9 -32 0 0 5 4 9 10
9 5 0 7 8 4 18 -4 13 -2 12 7 -3 7 -11 12 -22 11 -24z m-76 -56 c-20 -15 -21
-25 -1 -25 8 0 15 5 15 11 0 5 5 7 11 3 8 -4 5 -10 -7 -17 -11 -6 -21 -14 -24
-18 -5 -7 -31 15 -30 26 1 26 -1 29 -10 15 -6 -9 -10 -10 -10 -3 0 16 17 26
25 14 10 -16 35 0 36 23 1 19 2 19 6 2 3 -11 -2 -25 -11 -31z m-11 25 c3 -5 1
-10 -4 -10 -6 0 -11 5 -11 10 0 6 2 10 4 10 3 0 8 -4 11 -10z m68 3 c-7 -2
-19 -2 -25 0 -7 3 -2 5 12 5 14 0 19 -2 13 -5z m-163 -39 c0 -8 -19 -13 -24
-6 -3 5 1 9 9 9 8 0 15 -2 15 -3z m55 -22 c-5 -4 -10 -13 -11 -19 -3 -34 -4
-35 -19 -23 -11 9 -12 16 -2 31 6 10 19 19 27 19 9 0 11 -3 5 -8z m-45 -54 c0
-7 -5 -20 -11 -28 -8 -11 -9 -9 -3 10 6 22 5 23 -9 12 -12 -10 -17 -10 -23 -1
-4 7 -3 9 4 5 6 -3 13 -2 17 4 9 14 25 13 25 -2z m64 -9 c-3 -5 -10 -7 -15 -3
-5 3 -7 10 -3 15 3 5 10 7 15 3 5 -3 7 -10 3 -15z m-11 -22 c4 3 7 1 7 -6 0
-8 -6 -11 -16 -7 -9 3 -23 6 -32 6 -14 0 -15 2 -2 10 9 5 19 5 26 0 6 -6 14
-7 17 -3z m-53 -27 c0 -5 -2 -10 -4 -10 -3 0 -8 5 -11 10 -3 6 -1 10 4 10 6 0
11 -4 11 -10z m-95 -20 c-3 -5 -12 -10 -18 -10 -7 0 -6 4 3 10 19 12 23 12 15
0z m38 -22 c3 -8 -5 -14 -20 -14 -22 -2 -23 -1 -6 12 22 17 20 16 26 2z m57
-3 c-6 -8 -8 -20 -4 -27 5 -10 4 -10 -5 -2 -13 12 -5 44 11 44 6 0 5 -6 -2
-15z m41 -33 c-7 -2 -18 1 -23 6 -8 8 -4 9 13 5 13 -4 18 -8 10 -11z m-151 4
c0 -11 -19 -15 -25 -6 -3 5 1 10 9 10 9 0 16 -2 16 -4z m107 -38 c-3 -8 -6 -5
-6 6 -1 11 2 17 5 13 3 -3 4 -12 1 -19z m-43 3 c4 -5 -1 -8 -9 -7 -21 3 -31
16 -12 16 9 0 18 -4 21 -9z m83 -16 c0 -8 -4 -12 -9 -9 -5 3 -6 10 -3 15 9 13
12 11 12 -6z m-102 -25 c3 -5 1 -10 -4 -10 -6 0 -11 5 -11 10 0 6 2 10 4 10 3
0 8 -4 11 -10z m-51 -19 c4 -5 -3 -7 -14 -4 -23 6 -26 13 -6 13 8 0 17 -4 20
-9z m126 -5 c-7 -7 -14 -6 -21 1 -9 9 -7 12 9 10 14 -1 18 -5 12 -11z m-105
-16 c-3 -5 -12 -10 -18 -10 -7 0 -6 4 3 10 19 12 23 12 15 0z m62 -6 c-3 -3
-12 -4 -19 -1 -8 3 -5 6 6 6 11 1 17 -2 13 -5z"/>
<path d="M6235 7520 c-3 -5 -1 -10 4 -10 6 0 11 5 11 10 0 6 -2 10 -4 10 -3 0
-8 -4 -11 -10z"/>
</g>
</svg>
